<svg xmlns="http://www.w3.org/2000/svg" width="16" height="16" viewBox="0 0 16 16"><path d="M1544 381c1.09 0 2 .909 2 2v3h1a1 1 0 0 1 1 1v4a6 6 0 0 1-3 5.195c-1.09.629-2.527.805-4 .805s-2.91-.176-4-.805a6 6 0 0 1-3-5.195v-4a1 1 0 0 1 1-1h1v-3c0-1.091.91-2 2-2zm0 2h-6v3h1v-2h1v2h2v-2h1v2h1zm2 5h-10v3c0 1.43.761 2.747 2 3.463.458.264 1.746.537 3 .537s2.542-.273 3-.537a4 4 0 0 0 2-3.463z" style="baseline-shift:baseline;display:inline;overflow:visible;opacity:.99;vector-effect:none;fill:#2e3436;fill-opacity:.992157;stroke-linecap:round;stroke-linejoin:round;stroke-miterlimit:2;stop-color:#000;stop-opacity:1" transform="translate(-1533 -381)"/></svg>