<svg xmlns="http://www.w3.org/2000/svg" width="16" height="16" viewBox="0 0 16 16"><filter id="a" width="100%" height="100%" x="0%" y="0%"><feColorMatrix color-interpolation-filters="sRGB" values="0 0 0 0 1 0 0 0 0 1 0 0 0 0 1 0 0 0 1 0"/></filter><mask id="b"><g filter="url(#a)"><path fill-opacity=".5" d="M-1.6-1.6h19.2v19.2H-1.6z"/></g></mask><clipPath id="c"><path d="M0 0h1600v1200H0z"/></clipPath><mask id="d"><g filter="url(#a)"><path fill-opacity=".7" d="M-1.6-1.6h19.2v19.2H-1.6z"/></g></mask><clipPath id="e"><path d="M0 0h1600v1200H0z"/></clipPath><mask id="f"><g filter="url(#a)"><path fill-opacity=".35" d="M-1.6-1.6h19.2v19.2H-1.6z"/></g></mask><clipPath id="g"><path d="M0 0h1600v1200H0z"/></clipPath><g mask="url(#b)"><g clip-path="url(#c)" transform="translate(-220 -396)"><path d="M550 182a2 2 0 0 0-1 .281v3.438c.305.18.648.277 1 .281a2 2 0 1 0 0-4m0 5c-.34 0-.68.059-1 .176V194h4v-4a3 3 0 0 0-3-3m0 0"/></g></g><g mask="url(#d)"><g clip-path="url(#e)" transform="translate(-220 -396)"><path d="M569 182v4a2 2 0 1 0 0-4m0 5v7h3v-4a3 3 0 0 0-3-3m0 0"/></g></g><g mask="url(#f)"><g clip-path="url(#g)" transform="translate(-220 -396)"><path d="M573 182.27v3.449a2 2 0 0 0 1-1.719c0-.715-.383-1.375-1-1.73m0 4.906V194h2v-4c0-1.27-.8-2.402-2-2.824m0 0"/></g></g><g fill="#222"><path d="M6 5a5 5 0 1 0 0 10A5 5 0 0 0 6 5m-1 5c.55 0 1 .45 1 1s-.45 1-1 1-1-.45-1-1 .45-1 1-1m0 0"/><path d="M15 1h-3L6 7l4 1 1-1h2V5h2zm0 0"/></g></svg>