<svg xmlns="http://www.w3.org/2000/svg" width="16" height="16" viewBox="0 0 16 16"><path d="M13.738 4.094 11.828 6H13c.57 0 1 .43 1 1v6c0 .57-.43 1-1 1H8c-.57 0-1-.43-1-1v-2H5v2c0 1.645 1.355 3 3 3h5c1.645 0 3-1.355 3-3V7c0-1.39-.969-2.578-2.262-2.906m0 0"/><path d="M3 0C1.355 0 0 1.355 0 3v6c0 1.645 1.355 3 3 3h5c1.645 0 3-1.355 3-3V6.828L9.414 8.414q-.187.187-.414.316V9c0 .57-.43 1-1 1H3c-.57 0-1-.43-1-1V3c0-.57.43-1 1-1h5c.57 0 1 .43 1 1v.172l1.621-1.621A3.01 3.01 0 0 0 8 0zm0 0"/><path d="M14 0a1 1 0 0 0-.707.293l-6 6a1 1 0 1 0 1.414 1.414l6-6A1 1 0 0 0 14 0m0 0"/></svg>