<svg xmlns="http://www.w3.org/2000/svg" width="16" height="16" viewBox="0 0 16 16"><g fill="#222"><path d="M5 8v1.5c0 .277-.223.5-.5.5H4c-.55 0-1 .45-1 1a.985.985 0 0 0 1 .969h8c.55 0 1-.45 1-1a1 1 0 0 0-.297-.696A1 1 0 0 0 12 9.996l-.5.004a.51.51 0 0 1-.355-.148A.5.5 0 0 1 11 9.5V8zM7.992 12c-.699 0-1.351.371-1.715.973H2.992c-.55 0-1 .449-1 1s.45 1 1 1h3.25a2.01 2.01 0 0 0 1.75 1.039 2.01 2.01 0 0 0 1.754-1.04h3.258a1 1 0 1 0 0-2H9.71A2 2 0 0 0 7.992 12m0 1a1.005 1.005 0 1 1 .005 2.01A1.005 1.005 0 0 1 7.992 13m0 0"/><path d="M6.992 10H9v3H6.992zM4.5 0A2.52 2.52 0 0 0 2 2.5v4C2 7.867 3.133 9 4.5 9h7C12.867 9 14 7.867 14 6.5v-4C14 1.133 12.867 0 11.5 0zm0 2h7c.293 0 .5.207.5.5v4a.48.48 0 0 1-.5.5h-7a.48.48 0 0 1-.5-.5v-4c0-.293.207-.5.5-.5m0 0"/></g></svg>