<?xml version="1.0" encoding="UTF-8" standalone="no"?>
<svg
   height="16px"
   viewBox="0 0 16 16"
   width="16px"
   version="1.1"
   id="svg2"
   xmlns="http://www.w3.org/2000/svg"
   xmlns:svg="http://www.w3.org/2000/svg">
  <path
     id="circle1732"
     style="fill:#2e3436;fill-opacity:0.35"
     d="m 7.999975,8e-5 c -4.40643,0 -8,3.59357 -8,8 0,4.40643 3.59357,8 8,8 0.057,0 0.11318,-7.5e-4 0.16993,-0.002 a 3,3 0 0 1 0.002,-2 c -0.0573,0.002 -0.11416,0.002 -0.17188,0.002 -0.33187,0 -0.65771,-0.0249 -0.97461,-0.0762 -0.24149,-0.28731 -0.47944,-0.68641 -0.6875,-1.17187 -0.21449,-0.5005 -0.39731,-1.09289 -0.5371,-1.75196 h 2.19921 a 3,3 0 0 1 0.17188,-1 h -2.54297 c -0.0836,-0.63033 -0.12891,-1.30269 -0.12891,-2 0,-0.6973 0.0453,-1.36966 0.12891,-2 h 4.74023 c 0.0836,0.63034 0.13086,1.3027 0.13086,2 0,0.0144 4e-5,0.0286 0,0.043 a 3,3 0 0 1 1,0 c 4e-5,-0.0144 0,-0.0286 0,-0.043 0,-0.69303 -0.0409,-1.36344 -0.11914,-2 h 2.2793 c 0.21933,0.62497 0.33984,1.29798 0.33984,2 0,0.058 -3.2e-4,0.11623 -0.002,0.17383 a 3,3 0 0 1 2,-0.002 c 10e-4,-0.0573 0.002,-0.11432 0.002,-0.17188 0,-4.40643 -3.59357,-8 -8,-8 z m 0,2 c 0.33188,0 0.65772,0.0269 0.97461,0.0781 0.2415,0.28732 0.47945,0.68446 0.6875,1.16992 0.2145,0.5005 0.39732,1.09289 0.53711,1.75195 h -4.39843 c 0.13979,-0.65906 0.32261,-1.25145 0.5371,-1.75195 0.20806,-0.48546 0.44601,-0.8826 0.6875,-1.16992 0.3169,-0.0513 0.64274,-0.0781 0.97461,-0.0781 z M 5.580055,2.50594 C 5.524855,2.6188 5.471325,2.73362 5.419905,2.8536 5.151235,3.4805 4.933165,4.20486 4.777325,5.00008 h -1.98047 c 0.63437,-1.10205 1.60948,-1.97932 2.7832,-2.49414 z m 4.83985,0 c 1.17372,0.51482 2.14883,1.39209 2.7832,2.49414 h -1.98242 C 11.064835,4.20486 10.848725,3.4805 10.580055,2.8536 10.528655,2.73362 10.475065,2.6188 10.419905,2.50594 Z m -8.08204,3.49414 h 2.28125 c -0.0783,0.63656 -0.11914,1.30697 -0.11914,2 0,0.69304 0.0409,1.36344 0.11914,2 h -2.28125 c -0.21933,-0.62496 -0.33789,-1.29797 -0.33789,-2 0,-0.70202 0.11856,-1.37503 0.33789,-2 z m 0.45899,5 h 1.98047 c 0.15584,0.79523 0.37391,1.51959 0.64258,2.14649 0.0514,0.11998 0.10499,0.23675 0.16015,0.34961 -1.17372,-0.51482 -2.14883,-1.39404 -2.7832,-2.4961 z" />
  <path
     id="path1742"
     style="fill:#e01b24"
     class="error"
     d="m 10.999495,10.00079 a 1,1 0 0 0 -0.707,0.29297 1,1 0 0 0 0,1.41406 l 1.2929,1.29297 -1.2929,1.29297 a 1,1 0 0 0 0,1.41406 1,1 0 0 0 1.414,0 l 1.293,-1.29297 1.293,1.29297 a 1,1 0 0 0 1.414,0 1,1 0 0 0 0,-1.41406 l -1.2929,-1.29297 1.2929,-1.29297 a 1,1 0 0 0 0,-1.41406 1,1 0 0 0 -0.707,-0.29297 1,1 0 0 0 -0.707,0.29297 l -1.293,1.29297 -1.293,-1.29297 a 1,1 0 0 0 -0.707,-0.29297 z" />
</svg>
