<svg xmlns="http://www.w3.org/2000/svg" width="16" height="16" viewBox="0 0 16 16"><path d="M8 0C3.594 0 0 3.594 0 8s3.594 8 8 8q.085 0 .17-.002a3 3 0 0 1 .002-2Q8.087 14.001 8 14a6 6 0 0 1-.975-.076c-.241-.287-.479-.687-.687-1.172A9.5 9.5 0 0 1 5.8 11H8a3 3 0 0 1 .172-1H5.629A15 15 0 0 1 5.5 8c0-.697.045-1.37.129-2h4.74c.084.63.131 1.303.131 2v.043a3 3 0 0 1 1 0V8c0-.693-.04-1.363-.12-2h2.28a6 6 0 0 1 .338 2.174 3 3 0 0 1 2-.002L16 8c0-4.406-3.594-8-8-8m0 2q.499 0 .975.078c.241.288.479.685.687 1.17.215.5.397 1.093.537 1.752H5.801a9.5 9.5 0 0 1 .537-1.752c.208-.485.446-.883.687-1.17Q7.501 2.001 8 2m-2.42.506a8 8 0 0 0-.16.348A10.7 10.7 0 0 0 4.777 5h-1.98A6 6 0 0 1 5.58 2.506m4.84 0A6 6 0 0 1 13.203 5h-1.982a10.7 10.7 0 0 0-.64-2.146 8 8 0 0 0-.161-.348M2.338 6h2.281c-.078.637-.119 1.307-.119 2s.04 1.364.12 2H2.337A6 6 0 0 1 2 8c0-.702.119-1.375.338-2m.459 5h1.98c.156.795.374 1.52.643 2.147q.077.18.16.35A6 6 0 0 1 2.797 11" style="fill:#2e3436;fill-opacity:.35"/><path d="M11 10a1 1 0 0 0-.708.294 1 1 0 0 0 0 1.414L11.585 13l-1.293 1.293a1 1 0 0 0 0 1.414 1 1 0 0 0 1.414 0L13 14.415l1.293 1.293a1 1 0 0 0 1.414 0 1 1 0 0 0 0-1.414L14.414 13l1.292-1.293a1 1 0 0 0 0-1.414A1 1 0 0 0 15 10a1 1 0 0 0-.707.293L13 11.587l-1.293-1.293A1 1 0 0 0 11 10" class="error" style="fill:#e01b24"/></svg>