<svg xmlns="http://www.w3.org/2000/svg" width="16" height="16" viewBox="0 0 16 16"><path fill="#2e3436" d="M1.531.469.473 1.53l14 14 1.058-1.062L9.34 8.277c.547.176 1.043.47 1.422.887l.5.547a1 1 0 0 0 .691.324 1 1 0 0 0 .723-.258 1 1 0 0 0 .063-1.414l-.5-.547C11.116 6.582 9.534 5.988 7.968 6a7 7 0 0 0-.84.066L5.457 4.395c2.86-.84 6.184-.223 8.352 1.851l.5.477a.999.999 0 1 0 1.383-1.441l-.497-.481C13.238 2.926 10.617 1.992 8 1.992c-1.41 0-2.82.274-4.125.82zm-.226 3.894c-.172.14-.336.282-.496.438l-.5.48A.999.999 0 1 0 1.69 6.723l.5-.477c.172-.164.348-.316.536-.46zM4.27 7.328q-.269.224-.508.488l-.5.547a.995.995 0 0 0 .066 1.414c.195.18.453.274.719.258.266-.012.516-.129.695-.324l.496-.547q.207-.226.461-.406zM7.14 10.2a1.9 1.9 0 0 0-.554.387 2 2 0 1 0 3.219 2.277zm0 0"/></svg>