<?xml version="1.0" encoding="UTF-8"?>
<svg width="1024px" height="1024px" viewBox="0 0 1024 1024" version="1.1" xmlns="http://www.w3.org/2000/svg" xmlns:xlink="http://www.w3.org/1999/xlink">
    <title>dark-front</title>
    <defs>
        <linearGradient x1="11.0925%" y1="100%" x2="11.0925%" y2="0%" id="linearGradient-1">
            <stop stop-color="#C0BFBC" offset="0%"></stop>
            <stop stop-color="#FFFFFF" offset="100%"></stop>
        </linearGradient>
    </defs>
    <g id="Template---App-Icons" stroke="none" stroke-width="1" fill="none" fill-rule="evenodd">
        <g id="3---Layer">
            <path d="M794.159862,76.5487443 L827.954102,76.502497 C845.627198,76.4783114 859.973678,90.7855797 859.997864,108.458675 C859.997904,108.48787 859.997904,108.517064 859.997864,108.546259 L859.972101,127.371917 C859.95594,139.181 858.469033,144.749383 855.682162,149.955039 C852.895291,155.160695 848.809492,159.246495 843.603835,162.033366 C838.398179,164.820237 832.829796,166.307144 821.020714,166.323305 L787.226474,166.369552 C769.553378,166.393738 755.206898,152.08647 755.182712,134.413374 C755.182672,134.38418 755.182672,134.354985 755.182712,134.32579 L755.208475,115.500132 C755.224636,103.69105 756.711543,98.1226667 759.498414,92.9170104 C762.285285,87.711354 766.371084,83.6255546 771.576741,80.8386833 C776.782397,78.0518121 782.35078,76.564905 794.159862,76.5487443 Z" id="rect1486" fill="#DA228A" transform="translate(807.5903, 121.436) rotate(45) translate(-807.5903, -121.436)"></path>
            <polygon id="path1487" fill="#F833A2" transform="translate(659.206, 269.4147) rotate(-45) translate(-659.206, -269.4147)" points="449.738182 336.486546 449.553672 201.769314 868.674023 202.34288 868.858384 337.060111"></polygon>
            <path d="M430.677229,467.371506 L453.130101,467.402233 C463.472024,467.416386 471.852281,475.796643 471.866434,486.138565 C471.880537,496.44397 463.537788,504.809583 453.232384,504.823686 C453.21536,504.82371 453.198336,504.82371 453.181313,504.823686 L430.728441,504.79296 C420.386518,504.778807 412.006261,496.39855 411.992108,486.056627 C411.978006,475.751223 420.320754,467.385609 430.626158,467.371506 C430.643182,467.371483 430.660206,467.371483 430.677229,467.371506 Z" id="rect1489" fill="#AA0E66" transform="translate(441.9293, 486.0976) rotate(-45) translate(-441.9293, -486.0976)"></path>
            <polygon id="rect1490" fill="url(#linearGradient-1)" transform="translate(468.4264, 459.6728) rotate(-45) translate(-468.4264, -459.6728)" points="430.974266 437.168762 505.817173 437.271184 505.878626 482.176928 431.03572 482.074506"></polygon>
            <path d="M521.866455,511.193167 C506.856905,481.23552 476.9095,473.71026 446.967957,470.468035 L446.89478,416.996222 C476.827562,413.835935 506.754483,406.392613 521.682095,376.475935 L521.866455,511.193167 Z" id="path1490" fill="#F833A2" transform="translate(484.3806, 443.8346) rotate(-45) translate(-484.3806, -443.8346)"></path>
            <polygon id="path1491" fill="#FFFFFF" transform="translate(521.4208, 406.8233) rotate(-45) translate(-521.4208, -406.8233)" points="506.360035 339.444241 536.297198 339.48521 536.481558 474.202442 506.544395 474.161473"></polygon>
            <polygon id="path1492" fill="#FFFFFF" transform="translate(802.2909, 126.721) rotate(-45) translate(-802.2909, -126.721)" points="794.898742 194.069349 809.867324 194.089833 809.682963 59.3726013 794.714382 59.3521168"></polygon>
            <path d="M605.336472,247.384105 L712.020889,247.530103 C724.431196,247.547086 734.487504,257.603394 734.504487,270.013701 C734.521411,282.380187 724.510113,292.418923 712.143628,292.435847 C712.123199,292.435875 712.102771,292.435875 712.082342,292.435847 L605.397925,292.289849 C592.987618,292.272866 582.93131,282.216558 582.914327,269.806251 C582.897403,257.439765 592.908701,247.401029 605.275186,247.384105 C605.295615,247.384077 605.316043,247.384077 605.336472,247.384105 Z" id="rect1492" fill="#AA0E66" transform="translate(658.7094, 269.91) rotate(-45) translate(-658.7094, -269.91)"></path>
        </g>
    </g>
</svg>