<?xml version="1.0" encoding="UTF-8"?>
<svg height="128px" viewBox="0 0 128 128" width="128px" xmlns="http://www.w3.org/2000/svg" xmlns:xlink="http://www.w3.org/1999/xlink">
    <linearGradient id="a" gradientUnits="userSpaceOnUse" x1="20" x2="92" y1="219" y2="219">
        <stop offset="0" stop-color="#109387" stop-opacity="0.992157"/>
        <stop offset="0.0833329" stop-color="#15d0ac" stop-opacity="0.992157"/>
        <stop offset="0.166659" stop-color="#109387" stop-opacity="0.992157"/>
        <stop offset="0.833333" stop-color="#109387" stop-opacity="0.992157"/>
        <stop offset="0.916666" stop-color="#15d0ac" stop-opacity="0.992157"/>
        <stop offset="1" stop-color="#109387" stop-opacity="0.992157"/>
    </linearGradient>
    <linearGradient id="b" gradientUnits="userSpaceOnUse" x1="20" x2="92" y1="219" y2="219">
        <stop offset="0" stop-color="#b2288c" stop-opacity="0.984375"/>
        <stop offset="0.0833329" stop-color="#f833a2" stop-opacity="0.992157"/>
        <stop offset="0.166659" stop-color="#b2288c" stop-opacity="0.988266"/>
        <stop offset="0.833333" stop-color="#b2288c" stop-opacity="0.988266"/>
        <stop offset="0.916666" stop-color="#f833a2" stop-opacity="0.992157"/>
        <stop offset="1" stop-color="#b2288c" stop-opacity="0.992157"/>
    </linearGradient>
    <linearGradient id="c" gradientUnits="userSpaceOnUse">
        <stop offset="0" stop-color="#fa76bf"/>
        <stop offset="1" stop-color="#e50985"/>
    </linearGradient>
    <linearGradient id="d" gradientTransform="matrix(1.658437 1.658437 -1.06066 1.06066 -458.40558 -785.370353)" x1="406.030823" x2="412" xlink:href="#c" y1="112" y2="112"/>
    <linearGradient id="e" gradientTransform="matrix(0.777086 -0.777086 -0.707107 -0.707107 -188.110949 336.343077)" gradientUnits="userSpaceOnUse" x1="368" x2="368" y1="34" y2="15.999996">
        <stop offset="0" stop-color="#c7c4bc"/>
        <stop offset="0.309" stop-color="#f6f5f4"/>
        <stop offset="0.5" stop-color="#f6f5f4"/>
        <stop offset="1" stop-color="#c3c2bf"/>
    </linearGradient>
    <linearGradient id="f" gradientTransform="matrix(0.707107 -0.707107 0.707107 0.707107 -263.03315 213.27538)" gradientUnits="userSpaceOnUse" x1="332.109253" x2="332.109253" y1="118" y2="112">
        <stop offset="0" stop-color="#c0bfbc"/>
        <stop offset="1" stop-color="#ffffff"/>
    </linearGradient>
    <linearGradient id="g" gradientTransform="matrix(0.140497 -0.374682 0.374682 -0.140497 78.941496 98.570135)" x1="181.677414" x2="143.24614" xlink:href="#c" y1="-139.479385" y2="-101.048103"/>
    <linearGradient id="h" gradientUnits="userSpaceOnUse">
        <stop offset="0" stop-color="#f853b0"/>
        <stop offset="0.308998" stop-color="#fcabd8"/>
        <stop offset="1" stop-color="#e50985"/>
    </linearGradient>
    <linearGradient id="i" gradientTransform="matrix(1.59099 1.59099 0.20203 -0.20203 -594.804899 -561.347281)" x1="394.817352" x2="402.817352" xlink:href="#h" y1="115" y2="115"/>
    <linearGradient id="j" gradientTransform="matrix(1.59099 1.59099 0.101015 -0.101015 -545.711516 -610.440664)" x1="394.817352" x2="402.817352" xlink:href="#h" y1="115" y2="115"/>
    <path d="m 78.999969 181 h -46 c -5.523437 0 -10 4.476562 -10 10 v 56 c 0 5.523438 4.476563 10 10 10 h 46 c 5.523438 0 10 -4.476562 10 -10 v -56 c 0 -5.523438 -4.476562 -10 -10 -10 z m 0 0" fill="#ffffff" stroke="url(#a)" stroke-linecap="round" stroke-linejoin="round" stroke-miterlimit="2" stroke-width="6" transform="matrix(1 0 0 1 28.000031 -140)"/>
    <path d="m 107 39 h -46 c -5.523437 0 -10 4.476562 -10 10 v 54 c 0 5.523438 4.476563 10 10 10 h 46 c 5.523438 0 10 -4.476562 10 -10 v -54 c 0 -5.523438 -4.476562 -10 -10 -10 z m 0 0" fill="none" stroke="#15d0ac" stroke-linecap="round" stroke-linejoin="round" stroke-miterlimit="2" stroke-width="6"/>
    <path d="m 60 52 v 24 h 28 v -6 h 20 v -18 z m 0 28 v 18 h 40 v -6 h 8 v -12 z m 0 0" fill="#deddda"/>
    <path d="m 59.902344 58 h 38.097656 v 6 h -38.097656 z m 0 0" fill="#15d0ac"/>
    <path d="m 60 84 h 32 v 8 h -32 z m 0 0" fill="#f956b2"/>
    <path d="m 60 80 h 48 v 6 h -48 z m 0 0" fill="#f956b2"/>
    <path d="m 78.99997 181 h -46 c -5.523437 0 -10 4.476562 -10 10 v 56 c 0 5.523438 4.476563 10 10 10 h 46 c 5.523438 0 10 -4.476562 10 -10 v -56 c 0 -5.523438 -4.476562 -10 -10 -10 z m 0 0" fill="#ffffff" stroke="url(#b)" stroke-linecap="round" stroke-linejoin="round" stroke-miterlimit="2" stroke-width="6" transform="matrix(1 0 0 1 -11.99997 -168)"/>
    <path d="m 67 11 h -46 c -5.523437 0 -10 4.476562 -10 10 v 54 c 0 5.523438 4.476563 10 10 10 h 46 c 5.523438 0 10 -4.476562 10 -10 v -54 c 0 -5.523438 -4.476562 -10 -10 -10 z m 0 0" fill="none" stroke="#f833a2" stroke-linecap="round" stroke-linejoin="round" stroke-miterlimit="2" stroke-width="6"/>
    <path d="m 20 24 v 24 h 28 v -6 h 20 v -18 z m 0 28 v 18 h 40 v -6 h 8 v -12 z m 0 0" fill="#deddda"/>
    <path d="m 20 30 h 38.097656 v 6 h -38.097656 z m 0 0" fill="#15d0ac"/>
    <path d="m 20 56 h 31 v 8 h -31 z m 0 0" fill="#f833a2"/>
    <path d="m 20 52 h 38.1875 v 6 h -38.1875 z m 0 0" fill="#f956b2"/>
    <path d="m 20 56 h 31 v 8 h -31 z m 0 0" fill="#f956b2"/>
    <path d="m 103.25 5.386719 l 4.242188 4.242187 c 1.5625 1.5625 1.5625 4.09375 0 5.65625 l -2.828126 2.828125 c -1.5625 1.5625 -4.097656 1.5625 -5.660156 0 l -4.242187 -4.242187 c -1.5625 -1.5625 -1.5625 -4.09375 0 -5.65625 l 2.828125 -2.828125 c 1.5625 -1.5625 4.097656 -1.5625 5.660156 0 z m 0 0" fill="url(#d)"/>
    <path d="m 67.894531 57.710938 l -12.730469 -12.726563 l 39.597657 -39.597656 l 12.730469 12.726562 z m 0 0" fill="url(#e)"/>
    <path d="m 49.507812 60.539062 l 2.828126 -2.828124 c 0.78125 -0.78125 2.046874 -0.78125 2.828124 0 s 0.78125 2.046874 0 2.828124 l -2.828124 2.828126 c -0.78125 0.78125 -2.046876 0.78125 -2.828126 0 s -0.78125 -2.046876 0 -2.828126 z m 0 0" fill="#1eb4a7"/>
    <path d="m 49.507812 59.832031 l 2.121094 -2.121093 c 0.976563 -0.976563 2.558594 -0.976563 3.535156 0 c 0.976563 0.976562 0.976563 2.558593 0 3.535156 l -2.121093 2.121094 c -0.976563 0.976562 -2.558594 0.976562 -3.535157 0 c -0.976562 -0.976563 -0.976562 -2.558594 0 -3.535157 z m 0 0" fill="#aa0e66"/>
    <path d="m 50.214844 58.417969 l 7.070312 -7.070313 l 4.242188 4.242188 l -7.070313 7.070312 z m 0 0" fill="url(#f)"/>
    <path d="m 67.894531 57.710938 c -4.246093 -1.414063 -7.78125 0.707031 -10.910156 3.234374 l -5.050781 -5.050781 c 2.523437 -3.132812 4.644531 -6.667969 3.230468 -10.910156 z m 0 0" fill="url(#g)"/>
    <path d="m 55.164062 44.984375 l 2.828126 -2.828125 l 12.730468 12.726562 l -2.828125 2.828126 z m 0 0" fill="url(#i)"/>
    <path d="m 74.101562 34.535156 l 10.078126 -10.082031 c 1.171874 -1.171875 3.070312 -1.171875 4.242187 0 s 1.171875 3.070313 0 4.242187 l -10.078125 10.082032 c -1.171875 1.171875 -3.070312 1.171875 -4.242188 0 c -1.171874 -1.171875 -1.171874 -3.070313 0 -4.242188 z m 0 0" fill="#ef3ea1"/>
    <path d="m 93.347656 6.800781 l 1.414063 -1.414062 l 12.730469 12.726562 l -1.414063 1.414063 z m 0 0" fill="url(#j)"/>
</svg>
