<?xml version="1.0" encoding="UTF-8"?>
<svg height="16px" viewBox="0 0 16 16" width="16px" xmlns="http://www.w3.org/2000/svg">
    <path d="m 13.738281 4.09375 l -1.910156 1.90625 h 1.171875 c 0.570312 0 1 0.429688 1 1 v 6 c 0 0.570312 -0.429688 1 -1 1 h -5 c -0.570312 0 -1 -0.429688 -1 -1 v -2 h -2 v 2 c 0 1.644531 1.355469 3 3 3 h 5 c 1.644531 0 3 -1.355469 3 -3 v -6 c 0 -1.390625 -0.96875 -2.578125 -2.261719 -2.90625 z m 0 0"/>
    <path d="m 3 0 c -1.644531 0 -3 1.355469 -3 3 v 6 c 0 1.644531 1.355469 3 3 3 h 5 c 1.644531 0 3 -1.355469 3 -3 v -2.171875 l -1.585938 1.585937 c -0.125 0.125 -0.261718 0.230469 -0.414062 0.316407 v 0.269531 c 0 0.570312 -0.429688 1 -1 1 h -5 c -0.570312 0 -1 -0.429688 -1 -1 v -6 c 0 -0.570312 0.429688 -1 1 -1 h 5 c 0.570312 0 1 0.429688 1 1 v 0.171875 l 1.621094 -1.621094 c -0.515625 -0.921875 -1.5 -1.550781 -2.621094 -1.550781 z m 0 0"/>
    <path d="m 14 0 c -0.265625 0 -0.519531 0.105469 -0.707031 0.292969 l -6 6 c -0.390625 0.390625 -0.390625 1.023437 0 1.414062 s 1.023437 0.390625 1.414062 0 l 6 -6 c 0.390625 -0.390625 0.390625 -1.023437 0 -1.414062 c -0.1875 -0.1875 -0.441406 -0.292969 -0.707031 -0.292969 z m 0 0"/>
</svg>
